{
  "accessors": [
    {
      "bufferView": 2,
      "componentType": 5126,
      "count": 1538,
      "max": [
        2.0175449848175049,
        11.054011344909668,
        14.875637054443359
      ],
      "min": [
        -2.2876789569854736,
        -14.376265525817871,
        5.7299132347106934
      ],
      "type": "VEC3"
    },
    {
      "bufferView": 2,
      "byteOffset": 18456,
      "componentType": 5126,
      "count": 1538,
      "max": [
        0.98883062601089478,
        0.99998801946640015,
        1
      ],
      "min": [
        -0.99720394611358643,
        -0.99998795986175537,
        -0.99978339672088623
      ],
      "type": "VEC3"
    },
    {
      "bufferView": 3,
      "componentType": 5126,
      "count": 1538,
      "max": [
        0.99922263622283936,
        0.97492778301239014,
        0,
        1
      ],
      "min": [
        -0.98883050680160522,
        -0.99720406532287598,
        0,
        1
      ],
      "type": "VEC4"
    },
    {
      "bufferView": 1,
      "componentType": 5126,
      "count": 1538,
      "max": [
        1,
        0.83749997615814209
      ],
      "min": [
        0,
        0
      ],
      "type": "VEC2"
    },
    {
      "bufferView": 0,
      "componentType": 5125,
      "count": 3966,
      "max": [
        1537
      ],
      "min": [
        0
      ],
      "type": "SCALAR"
    },
    {
      "bufferView": 2,
      "byteOffset": 36912,
      "componentType": 5126,
      "count": 7778,
      "max": [
        3.755918025970459,
        13.487607002258301,
        14.875637054443359
      ],
      "min": [
        -3.5812089443206787,
        -14.37856388092041,
        0.074988998472690582
      ],
      "type": "VEC3"
    },
    {
      "bufferView": 2,
      "byteOffset": 130248,
      "componentType": 5126,
      "count": 7778,
      "max": [
        1,
        1,
        1
      ],
      "min": [
        -1,
        -1,
        -1
      ],
      "type": "VEC3"
    },
    {
      "bufferView": 3,
      "byteOffset": 24608,
      "componentType": 5126,
      "count": 7778,
      "max": [
        1,
        1,
        0.83977580070495605,
        1
      ],
      "min": [
        -1,
        -1,
        -0.99978339672088623,
        1
      ],
      "type": "VEC4"
    },
    {
      "bufferView": 1,
      "byteOffset": 12304,
      "componentType": 5126,
      "count": 7778,
      "max": [
        1,
        1
      ],
      "min": [
        0,
        -0
      ],
      "type": "VEC2"
    },
    {
      "bufferView": 0,
      "byteOffset": 15864,
      "componentType": 5125,
      "count": 23322,
      "max": [
        7777
      ],
      "min": [
        0
      ],
      "type": "SCALAR"
    },
    {
      "bufferView": 2,
      "byteOffset": 223584,
      "componentType": 5126,
      "count": 999,
      "max": [
        0.032552998512983322,
        13.487607002258301,
        13.23882007598877
      ],
      "min": [
        -1.7222139835357666,
        6.6473422050476074,
        9.6807279586791992
      ],
      "type": "VEC3"
    },
    {
      "bufferView": 2,
      "byteOffset": 235572,
      "componentType": 5126,
      "count": 999,
      "max": [
        0.98101764917373657,
        0.9999879002571106,
        0.99978333711624146
      ],
      "min": [
        -0.19279904663562775,
        -0.9999879002571106,
        -0.99978333711624146
      ],
      "type": "VEC3"
    },
    {
      "bufferView": 3,
      "byteOffset": 149056,
      "componentType": 5126,
      "count": 999,
      "max": [
        0,
        0,
        0,
        1
      ],
      "min": [
        -0.020809855312108994,
        -0.00058125500800088048,
        -0.99978339672088623,
        1
      ],
      "type": "VEC4"
    },
    {
      "bufferView": 1,
      "byteOffset": 74528,
      "componentType": 5126,
      "count": 999,
      "max": [
        1,
        1
      ],
      "min": [
        0,
        0
      ],
      "type": "VEC2"
    },
    {
      "bufferView": 0,
      "byteOffset": 109152,
      "componentType": 5125,
      "count": 2688,
      "max": [
        998
      ],
      "min": [
        0
      ],
      "type": "SCALAR"
    }
  ],
  "asset": {
    "extras": {
      "author": "Rafael Dias (https://sketchfab.com/RafaelDias)",
      "license": "CC-BY-4.0 (http://creativecommons.org/licenses/by/4.0/)",
      "source": "https://sketchfab.com/3d-models/satelite-ace103925b4c4858868a32d37c87160a",
      "title": "Satelite"
    },
    "generator": "Sketchfab-6.93.1",
    "version": "2.0"
  },
  "bufferViews": [
    {
      "buffer": 0,
      "byteLength": 119904,
      "byteOffset": 0,
      "name": "floatBufferViews",
      "target": 34963
    },
    {
      "buffer": 0,
      "byteLength": 82520,
      "byteOffset": 119904,
      "byteStride": 8,
      "name": "floatBufferViews",
      "target": 34962
    },
    {
      "buffer": 0,
      "byteLength": 247560,
      "byteOffset": 202424,
      "byteStride": 12,
      "name": "floatBufferViews",
      "target": 34962
    },
    {
      "buffer": 0,
      "byteLength": 165040,
      "byteOffset": 449984,
      "byteStride": 16,
      "name": "floatBufferViews",
      "target": 34962
    }
  ],
  "buffers": [
    {
      "byteLength": 615024,
      "uri": "scene.bin"
    }
  ],
  "materials": [
    {
      "doubleSided": true,
      "name": "initialShadingGroup",
      "pbrMetallicRoughness": {
        "baseColorFactor": [
          1,
          1,
          1,
          1
        ],
        "metallicFactor": 0,
        "roughnessFactor": 0.59999999999999998
      }
    }
  ],
  "meshes": [
    {
      "primitives": [
        {
          "attributes": {
            "NORMAL": 1,
            "POSITION": 0,
            "TANGENT": 2,
            "TEXCOORD_0": 3
          },
          "indices": 4,
          "material": 0,
          "mode": 4
        }
      ]
    },
    {
      "primitives": [
        {
          "attributes": {
            "NORMAL": 6,
            "POSITION": 5,
            "TANGENT": 7,
            "TEXCOORD_0": 8
          },
          "indices": 9,
          "material": 0,
          "mode": 4
        }
      ]
    },
    {
      "primitives": [
        {
          "attributes": {
            "NORMAL": 11,
            "POSITION": 10,
            "TANGENT": 12,
            "TEXCOORD_0": 13
          },
          "indices": 14,
          "material": 0,
          "mode": 4
        }
      ]
    }
  ],
  "nodes": [
    {
      "children": [
        1
      ],
      "name": "RootNode (gltf orientation matrix)",
      "rotation": [
        -0.70710678118654746,
        -0,
        -0,
        0.70710678118654757
      ]
    },
    {
      "children": [
        2
      ],
      "name": "RootNode (model correction matrix)"
    },
    {
      "children": [
        3,
        4,
        5
      ],
      "name": "satelite_sozinho.obj.cleaner.materialmerger.gles"
    },
    {
      "mesh": 0,
      "name": ""
    },
    {
      "mesh": 1,
      "name": ""
    },
    {
      "mesh": 2,
      "name": ""
    }
  ],
  "scene": 0,
  "scenes": [
    {
      "name": "OSG_Scene",
      "nodes": [
        0
      ]
    }
  ]
}

